<?xml version="1.0" standalone="no"?>
<!DOCTYPE svg PUBLIC "-//W3C//DTD SVG 1.1//EN" "http://www.w3.org/Graphics/SVG/1.1/DTD/svg11.dtd" >
<svg xmlns="http://www.w3.org/2000/svg">
<metadata></metadata>
<defs>
<font id="iconregular" horiz-adv-x="1024" >
<font-face units-per-em="1024" ascent="1024" descent="0" />
<missing-glyph horiz-adv-x="500" />
<glyph horiz-adv-x="0" />
<glyph unicode="&#xd;" />
<glyph unicode="&#xe000;" horiz-adv-x="500" d="M0 0z" />
<glyph unicode="&#xe001;" d="M111 499l139 139l202 -202l432 431l139 -139l-571 -571z" />
<glyph unicode="&#xe002;" d="M115 254l258 258l-258 258l139 139l258 -258l258 258l139 -139l-258 -258l258 -258l-139 -139l-258 258l-258 -258z" />
<glyph unicode="&#xe003;" d="M0 320l103 51l409 -205l409 205l103 -51l-512 -256zM0 512l103 51l409 -205l409 205l103 -51l-512 -256zM0 704l512 -256l512 256l-512 256zM170 704l342 171l342 -171l-342 -171z" />
<glyph unicode="&#xe004;" d="M0 512q0 139 68.5 257t186.5 186.5t257 68.5t257 -68.5t186.5 -186.5t68.5 -257t-68.5 -257t-186.5 -186.5t-257 -68.5t-257 68.5t-186.5 186.5t-68.5 257zM96 512q0 -83 31.5 -159t90.5 -135t135 -90.5t159 -31.5t159 31.5t135 90.5t90.5 135t31.5 159t-31.5 159 t-90.5 135t-135 90.5t-159 31.5t-159 -31.5t-135 -90.5t-90.5 -135t-31.5 -159zM320 640v128h384q26 0 45 -19t19 -45v-192l-192 -128h-128v64l192 128v64h-320zM448 192v128h128v-128h-128z" />
<glyph unicode="&#xe005;" d="M0 398l228 228h238l279 279v-279h279l-227 -228h-237l-280 -279v279h-280zM138 456h158l112 113h-157zM337 256l142 143h-142v-143zM377 456h160l112 113h-159zM547 626h141v140zM561 61h46q98 0 98 85t-98 85h-46v-170zM595 88v116h19q22 0 39 -15.5t17 -42t-17 -42.5 t-39 -16h-19zM618 456h155l113 113h-156zM742 61h100v27h-66v143h-34v-170zM872 61h34v71h11q11 0 15.5 -4t8.5 -14l20 -53h38l-27 67q-8 16 -18 17v1q16 2 25.5 13t9.5 26q0 14 -5.5 23t-11.5 13.5t-19.5 7t-20.5 2.5h-23h-37v-170zM906 159v45h11q36 0 36 -22 q0 -23 -36 -23h-11z" />
<glyph unicode="&#xe006;" d="M0 416q0 -13 9.5 -22.5t22.5 -9.5h960q13 0 22.5 9.5t9.5 22.5v192q0 13 -9.5 22.5t-22.5 9.5h-960q-13 0 -22.5 -9.5t-9.5 -22.5v-192z" />
<glyph unicode="&#xe007;" d="M0 416q0 -13 9.5 -22.5t22.5 -9.5h352v-352q0 -13 9.5 -22.5t22.5 -9.5h192q13 0 22.5 9.5t9.5 22.5v352h352q13 0 22.5 9.5t9.5 22.5v192q0 13 -9.5 22.5t-22.5 9.5h-352v352q0 13 -9.5 22.5t-22.5 9.5h-192q-13 0 -22.5 -9.5t-9.5 -22.5v-352h-352q-13 0 -22.5 -9.5 t-9.5 -22.5v-192z" />
<glyph unicode="&#xe008;" d="M0 85v299q0 17 12.5 30t30.5 13h298q18 0 30.5 -13t12.5 -30t-13 -30l-91 -91q48 -44 107 -68q60 -24 125 -24q89 0 166.5 43t124.5 119q7 12 35 78q5 16 20 16h128q9 0 15 -6.5t6 -15.5v-4q-43 -179 -179 -290t-319 -111q-97 0 -188 36.5t-162 104.5l-86 -86 q-13 -12 -30.5 -12t-30 12.5t-12.5 29.5zM12 619v4q43 179 180 290t320 111q97 0 189 -37q93 -37 164 -104l86 86q13 12 30.5 12t30 -12.5t12.5 -29.5v-299q0 -17 -12.5 -30t-30.5 -13h-298q-18 0 -30.5 13t-12.5 30t13 30l92 92q-99 91 -233 91q-89 0 -166.5 -43 t-124.5 -119q-7 -12 -35 -78q-5 -16 -20 -16h-133q-8 0 -14.5 6.5t-6.5 15.5z" />
<glyph unicode="&#xe009;" d="M0 455v114h284v113l171 -170l-171 -171v114h-284zM171 171v227h57v-171h284v512l227 114h-511v-227h-57v284h682v-739l-341 -171v171h-341z" />
<glyph unicode="&#xe00a;" d="M171 171v739h626v-284h-57v227h-455l227 -114v-512h228v171h57v-227h-285v-171zM569 455v114h284v113l171 -170l-171 -171v114h-284z" />
<glyph unicode="&#xe00b;" d="M0 512q0 16 1 34l836 -219h-803q-34 89 -34 185zM23 665q50 158 184.5 258.5t304.5 100.5q98 0 186.5 -35t157.5 -98zM83 232h858q-70 -107 -183.5 -169.5t-245.5 -62.5t-245.5 62.5t-183.5 169.5zM158 603l849 -222q17 64 17 131q0 166 -97 300z" />
<glyph unicode="&#xe00c;" d="M37 219q108 92 164 228q55 134 55 284q0 95 55 150t151 67q-5 11 -5 21q0 23 16 39t39 16t39 -16t16 -39q0 -11 -5 -21q96 -11 151 -66.5t55 -150.5q0 -149 56 -285q55 -134 163 -227q0 -29 -21.5 -51t-51.5 -22h-256q0 -60 -42.5 -103t-103.5 -43t-103.5 43t-42.5 103 h-256q-30 0 -51.5 22t-21.5 51zM141 219h742q-94 104 -141 235.5t-47 276.5q0 147 -183 147t-183 -147q0 -145 -47 -276q-47 -132 -141 -236zM411 146q0 -41 29.5 -70.5t71.5 -29.5q9 0 9 9t-9 9q-34 0 -58 24.5t-24 57.5q0 9 -9.5 9t-9.5 -9z" />
<glyph unicode="&#xe00d;" d="M128 768h768v32q0 40 -28 68t-68 28h-576q-40 0 -68 -28t-28 -68v-32zM150 640l52 -576q3 -27 23.5 -45.5t46.5 -18.5h480q26 0 46.5 18.5t23.5 45.5l52 576q3 27 -14.5 45.5t-43.5 18.5h-608q-26 0 -43.5 -18.5t-14.5 -45.5zM256 576h128v-448h-96zM311 843 q-3 -20 9 -34t32 -14h320q20 0 32 14t10 34l-19 133q-3 20 -19 34t-36 14h-256q-20 0 -36 -14t-19 -34zM378 859l14 101h240l14 -101h-268zM448 128v448h128v-448h-128zM640 128v448h128l-32 -448h-96z" />
<glyph unicode="&#xe00e;" d="M0 511.5q0 19.5 11 39.5q80 131 215 210.5t286 79.5q150 0 285.5 -79.5t214.5 -210.5q12 -19 12 -38.5t-11 -39.5q-81 -132 -216 -211t-285 -79t-285.5 79.5t-214.5 210.5q-12 19 -12 38.5zM73 512q76 -117 190.5 -186.5t248.5 -69.5t248.5 69.5t190.5 186.5 q-87 135 -218 202q35 -60 35 -129q0 -106 -75 -181t-181 -75t-181 75t-75 181q0 69 35 129q-131 -67 -218 -202zM338 585q0 -11 8 -19t19.5 -8t19.5 8t8 19q0 49 35 84t84 35q11 0 19 8t8 19.5t-8 19.5t-19 8q-71 0 -122.5 -51t-51.5 -123z" />
<glyph unicode="&#xe00f;" d="M0 512q0 22 11 39q88 135 217.5 212.5t283.5 77.5q51 0 103 -10l31 56q5 9 16 9q3 0 10 -4q9 -3 18 -8q10 -6 19 -11q12 -7 18 -11q9 -5 11 -6q9 -6 9 -15q0 -4 -1 -5l-180 -324q-125 -226 -180 -324l-28 -51q-6 -9 -16 -9q-7 0 -77 40q-9 6 -9 16q0 7 25 50 q-82 37 -150.5 98.5t-119.5 140.5q-11 17 -11 39zM73 512q96 -147 244 -214l45 80q-50 36 -78 91t-28 116q0 69 35 129q-131 -67 -218 -202zM338 585q0 -11 8 -19t19.5 -8t19.5 8t8 19q0 49 35 84t84 35q11 0 19 8t8 19.5t-8 19.5t-19 8q-71 0 -122.5 -51t-51.5 -123z M512 183l42 75q121 11 224.5 78.5t172.5 175.5q-66 102 -161 168l36 64q54 -37 104 -87q50 -51 83 -105q11 -20 11 -40t-11 -39q-23 -37 -63 -83q-86 -99 -198 -153q-113 -54 -240 -54zM603 346l161 287q4 -26 4 -48q0 -79 -45 -144.5t-120 -94.5z" />
<glyph unicode="&#xe010;" d="M189 133.5q0 35.5 25 59.5l319 319l-319 319q-25 25 -25 60t25 59l49 49q24 25 59.5 25t59.5 -25l428 -427q25 -25 25 -60t-25 -60l-428 -427q-24 -25 -59.5 -25t-59.5 25l-49 49q-25 24 -25 59.5z" />
<glyph unicode="&#xe011;" d="M189 512q0 35 25 60l428 427q24 25 59.5 25t59.5 -25l49 -49q25 -24 25 -59.5t-25 -59.5l-319 -319l319 -319q25 -25 25 -60t-25 -59l-49 -49q-24 -25 -59.5 -25t-59.5 25l-428 427q-25 25 -25 60z" />
<glyph unicode="&#xe012;" d="M0 201v622q0 37 27 64t65 27h841q37 0 64 -27t27 -64v-622q0 -38 -27 -64.5t-65 -26.5h-841q-37 0 -64 26q-27 28 -27 65zM73 201q0 -7 5.5 -12.5t13.5 -5.5h841q7 0 13 5q5 6 5 13v439q-19 -21 -39 -38q-153 -116 -244 -193q-28 -24 -47 -38t-50 -28t-58 -14h-1h-1 q-27 0 -58 14t-50 28q-17 13 -47 38q-92 77 -243 193q-21 17 -40 38v-439zM73 823q0 -96 84 -163q108 -85 229 -181q7 -5 20 -17q17 -14 26 -21q10 -7 26 -18t29 -16t24 -5h1h1q11 0 24 5t29 16t25.5 18t26.5 21q19 17 20 17q97 77 229 181q31 25 57 66q27 42 27 76v6v8v7 q-1 8 -2.5 7.5t-3 5t-5 4t-7.5 1.5h-842q-7 0 -12.5 -5.5t-5.5 -12.5z" />
<glyph unicode="&#xe013;" d="M0 0v256h256v-256h-256zM0 384v256h256v-256h-256zM0 768v256h256v-256h-256zM384 64v128h640v-128h-640zM384 448v128h640v-128h-640zM384 832v128h640v-128h-640z" />
<glyph unicode="&#xe014;" d="M32 0v64h128v64h-128v64h128v64h-128v64h192v-320h-192zM32 384v146l128 60v50h-128v64h192v-146l-128 -60v-50h128v-64h-192zM32 960v64h128v-256h-64v192h-64zM352 64v128h640v-128h-640zM352 448v128h640v-128h-640zM352 832v128h640v-128h-640z" />
<glyph unicode="&#xe015;" d="M0 704h192v-512h512v-192h128v192h192v128h-192v448l192 192l-64 64l-192 -192h-448v192h-128v-192h-192v-128zM320 384v320h320zM384 320l320 320v-320h-320z" />
<glyph unicode="&#xe016;" d="M0 0h64l192 320q3 -3 8.5 -6.5t26.5 -11.5t47.5 -10t73 4t100.5 24q62 21 136 114q-50 13 -116 13.5t-107 -4.5l-41 -6q4 3 11.5 7t31 16t47 22t55.5 20.5t60.5 15.5t59 4t54.5 -11q31 48 70 115q-50 13 -115 13.5t-106 -4.5l-40 -6q2 2 6.5 4.5t18.5 10t28.5 14.5t36 16 t41.5 16t44 13t46 9t44.5 2t41.5 -6q66 120 68 122q-48 2 -88.5 0.5t-67.5 -5.5l-27 -4q13 8 36 20.5t83 35.5t108 28q56 91 93 119q-116 0 -226.5 -37t-199.5 -98.5t-172 -147t-146 -177t-119 -194t-93.5 -192t-67.5 -178.5z" />
<glyph unicode="&#xe017;" d="M0 18h512h512q0 42 -32 86t-80 78t-102.5 63t-99.5 46t-71 21q-12 2 -18 20.5t-7 35.5l-1 18q3 3 8 8.5t18.5 23.5t25 37t23 47t15.5 56q21 0 36 27.5t13.5 62.5t-22.5 52q0 2 2.5 24t3.5 40.5t-1.5 49t-9.5 54.5t-23 51t-39.5 45t-62 30t-88 12t-88 -12t-62.5 -30 t-40 -45t-22.5 -51t-9 -54.5t-1.5 -49t3 -40.5t2 -24q-21 -17 -22.5 -52t13.5 -62.5t36 -27.5q7 -44 29.5 -87t41.5 -64l19 -21q0 -8 -0.5 -19.5t-7 -32t-17.5 -22.5q-27 -4 -72 -21t-99.5 -46t-102.5 -63t-80 -78t-32 -86z" />
<glyph unicode="&#xe018;" d="M0 17v37q0 62 55 124q41 47 113 91q54 34 112 59t97 34q2 7 3 19q-58 68 -78 145q-27 16 -41 54q-11 29 -9 61q2 34 19 58q-17 159 53 237q64 71 188 71t188 -71q70 -78 53 -237q17 -24 19 -58q2 -31 -9 -61q-14 -38 -41 -54q-20 -77 -78 -145q1 -12 3 -19q39 -9 97 -34 t112 -59q72 -44 113 -91q55 -62 55 -124v-37h-71l-10 66q-9 21 -30 45q-34 39 -97 77q-52 33 -108.5 57t-83.5 28t-42 32q-7 14 -10 34q-4 20 -4 39v15l11 12q6 6 17 19t31 49t25 71l5 31h28q9 10 11 30q4 27 -6 36l-14 12l1 18q0 5 1 16q14 129 -34 182q-41 46 -132 46 t-132 -46q-48 -54 -34 -182q1 -11 1 -16l1 -18l-14 -12q-10 -9 -6 -36q2 -20 11 -30h28l5 -31q5 -35 25 -71t30.5 -49t17.5 -19l11 -12v-15q0 -19 -4 -39q-3 -21 -10 -34q-15 -28 -41 -32q-28 -5 -84.5 -28.5t-108.5 -56.5q-62 -38 -97 -77q-21 -24 -30 -46l-10 -65h-71z " />
<glyph unicode="&#xe019;" d="M0 64q0 -26 19 -45t45 -19h64v64h128v128h128v128h128l83 83q53 -19 109 -19q133 0 226.5 93.5t93.5 226.5t-93.5 226.5t-226.5 93.5t-226.5 -93.5t-93.5 -226.5q0 -29 5 -59l-389 -389v-192zM704 800q0 40 28 68t68 28t68 -28t28 -68t-28 -68t-68 -28t-68 28t-28 68z " />
</font>
</defs>
</svg>
